<svg width="50" height="50" viewBox="0 0 50 50" fill="none" xmlns="http://www.w3.org/2000/svg">
    <path
        d="M50 25C50 38.8063 38.8077 50 25.0003 50C11.1928 50 0 38.8063 0 25C0 11.1923 11.1928 0 25.0003 0C38.8076 0 50 11.1923 50 25Z"
        fill="#F5BF41" />
    <path
        d="M44.1242 31.2026C42.1279 37.348 37.2307 42.2137 31.067 44.1672C30.3883 44.3827 30.0126 45.1076 30.228 45.7856C30.4428 46.4636 31.1677 46.8393 31.8458 46.6237C38.8085 44.4135 44.3166 38.9404 46.5752 31.9987C46.7956 31.3222 46.4247 30.5951 45.7481 30.3747C45.0714 30.1552 44.3445 30.526 44.1242 31.2026Z"
        fill="#E9AE3B" />
    <path
        d="M25.0003 0C11.1928 0 0 11.1923 0 25C0 33.0864 3.84273 40.2715 9.79789 44.8412L44.8417 9.79785C40.272 3.84268 33.0868 0 25.0003 0Z"
        fill="#F9D791" />
    <path
        d="M19.4386 3.00933C11.5208 5.0146 5.26119 11.1768 3.11517 19.0379C2.92767 19.7244 3.33246 20.4338 4.01918 20.6206C4.70562 20.8082 5.41442 20.403 5.60192 19.7166C7.49706 12.7582 13.0629 7.27876 20.0704 5.50796C20.761 5.33296 21.1787 4.63188 21.0038 3.94272C20.8297 3.2521 20.1285 2.83433 19.4386 3.00933Z"
        fill="white" />
    <path
        d="M25.0005 17.3523L27.1822 22.8043L33.0407 23.1947L28.5297 26.9542L29.9698 32.6461L25.0005 29.5186L20.0312 32.6461L21.4706 26.9542L16.9595 23.1947L22.8188 22.8043L25.0005 17.3523Z"
        fill="#E94C1A" />
</svg>
    